<?xml version="1.0" standalone="no"?>
<!DOCTYPE svg PUBLIC "-//W3C//DTD SVG 1.1//EN" "http://www.w3.org/Graphics/SVG/1.1/DTD/svg11.dtd" >
<svg xmlns="http://www.w3.org/2000/svg" xmlns:xlink="http://www.w3.org/1999/xlink" version="1.1">
<metadata></metadata>
<defs>
<font id="koblenzserialmedium" horiz-adv-x="606" >
<font-face units-per-em="1000" ascent="800" descent="-200" />
<missing-glyph horiz-adv-x="290" />
<glyph horiz-adv-x="0" />
<glyph unicode="&#xd;" horiz-adv-x="290" />
<glyph unicode=" "  horiz-adv-x="290" />
<glyph unicode="&#x09;" horiz-adv-x="290" />
<glyph unicode="&#xa0;" horiz-adv-x="290" />
<glyph unicode="!" horiz-adv-x="235" d="M36 79l81 96l81 -96l-81 -95zM62 199v517l122 9l-11 -512z" />
<glyph unicode="&#x22;" horiz-adv-x="432" d="M19 424l91 296l119 9l-115 -305h-95zM202 424l92 296l119 9l-116 -305h-95z" />
<glyph unicode="#" horiz-adv-x="632" d="M43 220l11 54h116l36 172h-115l11 54h116l44 209h54l-44 -209h100l45 209h54l-45 -209h116l-12 -54h-115l-37 -172h116l-12 -54h-115l-44 -209h-54l44 209h-101l-44 -209h-54l44 209h-115zM224 274h100l37 172h-101z" />
<glyph unicode="$" horiz-adv-x="525" d="M31 79l39 97q74 -80 167 -80q54 0 91 31.5t37 77.5q0 39 -23 58q-21 20 -106 54l-45 18q-78 31 -112.5 74t-34.5 111q0 72 45.5 129.5t121.5 78.5v50l137 1v-51q76 -24 124 -62l-34 -105l-30 27q-53 35 -119 35q-50 0 -85.5 -27t-35.5 -67q0 -27 16.5 -49t107.5 -65 l85 -38q117 -51 117 -171q0 -38 -14 -77q-31 -91 -132 -129v-61h-137v48q-96 9 -180 92z" />
<glyph unicode="%" horiz-adv-x="907" d="M35 507q0 103 47 165.5t124 62.5q78 0 126.5 -62t48.5 -166q0 -102 -47.5 -165.5t-125.5 -63.5q-79 0 -126 63t-47 166zM237 -1l367 740l62 -21l-367 -742zM528 214q0 104 46.5 166.5t123.5 62.5q80 0 127 -62t47 -167q0 -104 -47 -166t-126 -62q-78 0 -124.5 62.5 t-46.5 165.5zM208 665q-42 0 -67 -44t-25 -114q0 -71 24.5 -115t67.5 -44q39 0 65 44t26 115q0 36 -6 63.5t-20 50.5q-24 44 -65 44zM701 372q-42 0 -67.5 -44t-25.5 -114t25.5 -114t65.5 -44q42 0 67 44t25 114q0 71 -24.5 114.5t-65.5 43.5z" />
<glyph unicode="&#x26;" horiz-adv-x="653" d="M441 114l-59 -61q-65 -67 -148 -67q-82 0 -140.5 54.5t-58.5 130.5q0 90 72 158l82 75l-17 28q-47 77 -47 129q0 72 50.5 120.5t127.5 48.5q66 0 112 -41.5t46 -105.5q0 -51 -37 -101q-16 -22 -37 -39l-61 -52l122 -142l116 117l66 -67l-122 -121l117 -136l-76 -58z M253 334l-53 -52q-31 -30 -43 -58q-8 -19 -8 -39q0 -38 27 -68q28 -28 66 -28q39 0 84 42l53 51zM272 454l49 48q43 43 43 77q0 28 -18 46t-47 18q-34 0 -54 -23t-20 -62t27 -77z" />
<glyph unicode="'" horiz-adv-x="249" d="M19 424l91 296l119 9l-115 -305h-95z" />
<glyph unicode="(" horiz-adv-x="332" d="M279 826l51 -58q-54 -43 -97 -97q-38 -47 -61 -96q-48 -102 -48 -228q0 -125 48 -229q24 -50 67 -104q31 -39 91 -89l-51 -58q-67 51 -107.5 98.5t-76.5 116.5q-60 117 -60 265q0 145 60 264q17 34 35 62t42 56q35 43 107 97z" />
<glyph unicode=")" horiz-adv-x="332" d="M3 -75q30 25 52 47t38 42q45 55 68 104q48 105 48 229q0 121 -48 228q-21 48 -68 104q-16 20 -40 43.5t-50 45.5l50 58q67 -50 108.5 -99.5t75.5 -115.5q60 -120 60 -264q0 -143 -60 -265q-33 -66 -77 -117q-40 -47 -107 -98z" />
<glyph unicode="*" horiz-adv-x="404" d="M19 465l120 72l-108 60l19 65l119 -72v127l63 15v-141l106 64l47 -46l-122 -70l110 -62l-22 -64l-117 70v-123l-65 -18v140l-106 -65z" />
<glyph unicode="+" d="M61 332v106h190v192h105v-192h189v-106h-189v-189h-105v189h-190z" />
<glyph unicode="," horiz-adv-x="219" d="M-10 -120l91 295l119 12l-116 -307h-94z" />
<glyph unicode="-" horiz-adv-x="304" d="M19 251v92h265v-92h-265z" />
<glyph unicode="." horiz-adv-x="201" d="M19 79l82 96l81 -96l-81 -95z" />
<glyph unicode="/" horiz-adv-x="531" d="M19 -90l412 944l80 -19l-412 -943z" />
<glyph unicode="0" d="M35 359q0 179 69.5 277.5t198.5 98.5q127 0 198 -98.5t71 -277.5t-70 -277.5t-199 -98.5q-128 0 -198 99t-70 277zM303 628q-63 0 -105.5 -77t-42.5 -192t42 -192.5t105 -77.5t106 77.5t43 192.5t-42.5 192t-105.5 77z" />
<glyph unicode="1" d="M83 575l317 182v-749l-119 -16v590l-164 -92z" />
<glyph unicode="2" d="M269 107h282l-22 -107h-479l284 322q42 48 66 84q29 46 29 86q0 54 -38.5 94.5t-93.5 40.5q-53 0 -94 -38.5t-41 -91.5q0 -48 30.5 -84t81.5 -45l-72 -88q-72 27 -112.5 84t-40.5 131q0 101 72.5 169.5t180.5 68.5q102 0 172.5 -66.5t70.5 -164.5q0 -58 -29 -112.5 t-100 -128.5z" />
<glyph unicode="3" d="M45 98l67 79q68 -87 167 -87q59 0 99 34.5t40 85.5q0 52 -40 86t-104 34h-77v88h78q47 0 86 33t39 77t-33.5 73.5t-85.5 29.5q-90 0 -167 -81l-61 78q104 110 239 110q99 0 161 -53t62 -140q0 -56 -29.5 -98.5t-80.5 -60.5q132 -48 132 -182q0 -94 -69.5 -156t-176.5 -62 q-81 0 -145 32q-57 27 -101 80z" />
<glyph unicode="4" d="M14 176l301 561h123v-460h116l-18 -101h-98v-168l-113 -16v184h-311zM331 588l-168 -311h168v311z" />
<glyph unicode="5" d="M35 70l59 89q19 -22 31 -30q58 -40 131 -40q68 0 111.5 39.5t43.5 101.5t-44.5 100t-120.5 38q-62 0 -142 -40v393h395l-28 -107h-263v-165q49 13 89 13q102 0 169.5 -65t67.5 -165q0 -112 -74 -180q-36 -34 -84 -51t-110 -17q-148 0 -231 86z" />
<glyph unicode="6" d="M341 741l118 -48l-11 -10l-82 -72q-44 -43 -67 -68.5t-65 -85.5q47 26 101 26q97 0 163 -69.5t66 -173.5q0 -94 -59 -168q-71 -89 -200 -89q-112 0 -187.5 73.5t-75.5 185.5q0 141 133 316q87 114 153 172zM298 390q-55 0 -96.5 -40t-41.5 -98v-10q0 -66 41 -109.5 t105 -43.5q58 0 100.5 44t42.5 106q0 65 -43 108t-108 43z" />
<glyph unicode="7" d="M42 613l24 108h496l-297 -721h-139l278 613h-362z" />
<glyph unicode="8" d="M175 373q-105 39 -105 164q0 88 63 142t170 54q105 0 168.5 -53.5t63.5 -142.5q0 -122 -105 -164q35 -13 54 -30q66 -57 66 -146q0 -94 -66.5 -151.5t-180.5 -57.5q-112 0 -180 57.5t-68 151.5q0 89 66 146q18 15 54 30zM165 205q0 -50 39.5 -84.5t98.5 -34.5t98 33 t39 86q0 54 -39 90t-98 36q-58 0 -98 -36t-40 -90zM175 525q0 -47 36 -80q37 -31 92 -31t91 32t36 79q0 49 -36 82t-91 33q-53 0 -90.5 -32.5t-37.5 -82.5z" />
<glyph unicode="9" d="M265 -17l-119 47q62 51 94 82q37 35 66.5 69.5t65.5 84.5q-49 -26 -102 -26q-96 0 -162 70t-66 173q0 93 60 168q72 90 200 90q113 0 187.5 -74t74.5 -186q0 -103 -61 -207q-43 -73 -110 -156t-128 -135zM158 474q0 -59 43 -101q22 -20 48 -30t58 -10q57 0 98 44t41 105 q0 67 -41 110t-104 43q-61 0 -102 -44t-41 -108v-9z" />
<glyph unicode=":" horiz-adv-x="201" d="M19 79l82 96l81 -96l-81 -95zM19 442l82 96l81 -96l-81 -96z" />
<glyph unicode=";" horiz-adv-x="227" d="M-4 -120l90 295l119 12l-114 -307h-95zM45 442l81 96l82 -96l-82 -96z" />
<glyph unicode="&#x3c;" horiz-adv-x="267" d="M19 277l157 216l72 -49l-124 -168l119 -175l-71 -49z" />
<glyph unicode="=" d="M61 265v100h485v-100h-485zM61 409v98h485v-98h-485z" />
<glyph unicode="&#x3e;" horiz-adv-x="267" d="M19 101l124 168l-119 176l70 48l154 -224l-158 -217z" />
<glyph unicode="?" horiz-adv-x="453" d="M8 601q66 140 213 140q89 0 149 -58t60 -147q0 -39 -17 -80t-42 -60l-79 -59l-20 -17q-6 -8 -6 -25v-69l-100 -13v76q0 21 7.5 57.5t36.5 53.5l30 18q76 46 76 113q0 42 -30 73t-75 31q-78 0 -114 -89zM137 79l82 96l82 -96l-82 -95z" />
<glyph unicode="@" horiz-adv-x="845" d="M456 229q-5 -16 -20 -34q-37 -43 -82 -43q-26 0 -49 11q-41 17 -59.5 61t-18.5 117q0 55 18.5 103t51.5 87q49 58 110 58q60 0 87 -52l5 -10l9 54h49l-50 -298q-3 -20 -3 -35q0 -12 4 -28q8 -29 40 -29l15 3q22 7 55 45q41 47 54 131l4 55q0 115 -70 186.5t-181 71.5 l-47 -3q-110 -15 -183.5 -106.5t-73.5 -216.5q0 -24 2 -37q12 -127 97 -209q81 -78 194 -78q135 0 245 116l25 30l18 -43q-120 -150 -293 -150q-155 0 -259 114q-49 54 -70.5 124.5t-21.5 159.5q0 76 31 139.5t90 117.5q106 94 243 94q132 0 220 -87t88 -219q0 -33 -6 -69 q-22 -126 -101 -185q-39 -30 -82 -30q-64 0 -82 55q-3 9 -3 29zM286 291q0 -37 13 -61q17 -36 58 -36q27 0 47 20t44 85l19 73l1 10l7 42q3 20 3 36q0 15 -2 32t-21.5 34t-43.5 17q-13 0 -26 -5q-47 -19 -80 -111l-12 -48q-5 -26 -6 -44t-1 -44z" />
<glyph unicode="A" horiz-adv-x="705" d="M-21 11l335 710h81l330 -710l-126 -22l-109 240h-274l-110 -240zM355 583l-104 -253h205z" />
<glyph unicode="B" horiz-adv-x="576" d="M57 0v721h242q105 0 165 -50.5t60 -139.5q0 -119 -106 -156q124 -45 124 -174q0 -93 -62.5 -147t-169.5 -54h-253zM183 325v-223h100q56 0 92 30q34 31 34 82q0 76 -58 100q-25 10 -92 10zM184 619v-198h69q67 0 99 21q46 31 46 80q0 44 -33.5 70.5t-90.5 26.5h-90z" />
<glyph unicode="C" horiz-adv-x="596" d="M559 712l19 -137q-28 18 -56 28q-44 13 -87 13q-114 0 -190.5 -73t-76.5 -184q0 -109 75.5 -183.5t187.5 -74.5q67 0 150 46l-19 -135q-84 -27 -139 -27q-166 0 -277 107t-111 267q0 155 112 265.5t272 110.5q47 0 124 -18l12 -3z" />
<glyph unicode="D" horiz-adv-x="656" d="M57 0v721h186q142 0 224 -53q68 -43 111.5 -129t43.5 -177q0 -160 -105.5 -261t-273.5 -101h-186zM183 608v-498h69q103 0 172.5 71.5t69.5 179.5q0 59 -29.5 120.5t-74.5 90.5q-53 36 -139 36h-68z" />
<glyph unicode="E" horiz-adv-x="519" d="M57 0v721h401l28 -108h-303v-195h243v-100h-243v-211h323l-26 -107h-423z" />
<glyph unicode="F" horiz-adv-x="428" d="M57 -8v729h353l27 -111h-254v-208h191v-105h-191v-291z" />
<glyph unicode="G" horiz-adv-x="738" d="M663 650l-65 -98l-40 26q-77 43 -147 43q-102 0 -176 -76.5t-74 -182.5q0 -108 74 -184.5t181 -76.5q47 0 77.5 9.5t68.5 37.5v160h-201l28 95h294v-332q-118 -85 -267 -85q-156 0 -268.5 109.5t-112.5 263.5t111 265t268 111q145 0 249 -85z" />
<glyph unicode="H" horiz-adv-x="698" d="M57 -8v722l126 14v-304h332v290l126 14v-720l-126 -16v322h-332v-306z" />
<glyph unicode="I" horiz-adv-x="240" d="M57 -8v722l126 14v-720z" />
<glyph unicode="J" horiz-adv-x="381" d="M-5 17l10 114q44 -32 84 -32q63 0 93 52q15 27 15 104l1 459l125 14v-487q0 -75 -11 -116q-15 -60 -71 -99.5t-129 -39.5q-62 0 -117 31z" />
<glyph unicode="K" horiz-adv-x="577" d="M57 -8v722l126 14v-322l243 326l130 -28l-242 -317l263 -371l-132 -27l-262 379v-360z" />
<glyph unicode="L" horiz-adv-x="461" d="M57 0v714l126 14v-617h283l-27 -111h-382z" />
<glyph unicode="M" horiz-adv-x="823" d="M8 9l117 712h77l212 -471l204 471h77l120 -712l-123 -18l-79 484l-202 -489l-201 483l-79 -478z" />
<glyph unicode="N" horiz-adv-x="737" d="M57 -8v729h71l428 -500v493l125 14v-728h-71l-428 493v-485z" />
<glyph unicode="O" horiz-adv-x="825" d="M35 359q0 161 108 267.5t269 106.5q163 0 270.5 -107t107.5 -267q0 -159 -108.5 -266.5t-268.5 -107.5q-162 0 -270 106.5t-108 267.5zM412 621q-106 0 -179.5 -76.5t-73.5 -185.5t73.5 -185.5t179.5 -76.5q104 0 178.5 76.5t74.5 185.5q0 108 -74 185t-179 77z" />
<glyph unicode="P" horiz-adv-x="511" d="M57 -8v729h142q119 0 188 -38q53 -29 84 -85.5t31 -122.5q0 -70 -34.5 -130t-95.5 -89.5t-153 -29.5h-36v-218zM183 615v-284h39q76 0 119 37.5t43 105.5q0 79 -66 118q-40 23 -110 23h-25z" />
<glyph unicode="Q" horiz-adv-x="829" d="M699 107l129 -120l-87 -69l-131 121l-39 -21q-74 -33 -160 -33q-161 0 -268.5 107t-107.5 267q0 161 108 267.5t269 106.5t269.5 -106.5t108.5 -264.5q0 -71 -24 -140t-67 -115zM159 359q0 -108 73.5 -184.5t179.5 -76.5q104 0 178.5 76t74.5 185t-74 184.5t-179 75.5 t-179 -76t-74 -184z" />
<glyph unicode="R" horiz-adv-x="564" d="M57 -8v729h179q98 0 152.5 -23.5t88.5 -76t34 -122.5q0 -164 -159 -196l206 -290l-129 -24l-246 344v-325zM183 613v-267h54q65 0 106 37.5t41 97.5q0 132 -153 132h-48z" />
<glyph unicode="S" horiz-adv-x="508" d="M12 80l45 95q15 -19 32 -32q30 -23 62 -35t68 -12q54 0 91.5 31t37.5 78q0 57 -57 81l-117 49q-63 27 -99 57q-48 41 -48 129q0 92 69 153.5t170 61.5q51 0 104 -21q46 -18 89 -50l-41 -103q-61 61 -148 61q-51 0 -82 -25q-15 -12 -25.5 -32.5t-12.5 -36.5 q0 -25 14.5 -47t43.5 -37l67 -30l85 -38q117 -51 117 -171q0 -99 -68.5 -160t-177.5 -61q-124 0 -219 95z" />
<glyph unicode="T" horiz-adv-x="489" d="M-1 606l27 115h462v-116h-178v-597l-126 -16v614h-185z" />
<glyph unicode="U" horiz-adv-x="680" d="M623 728v-446v-15v-12q0 -43 -4 -63q-6 -46 -29 -86q-29 -56 -96.5 -88.5t-152.5 -32.5q-94 0 -164 38q-78 42 -106 125q-14 44 -14 134v432l126 14v-447q0 -80 23 -119q38 -64 135 -64q93 0 133 64q23 38 23 119v433z" />
<glyph unicode="V" horiz-adv-x="621" d="M-19 714l118 18l211 -580l210 580l120 -18l-270 -714h-120z" />
<glyph unicode="W" horiz-adv-x="903" d="M-13 712l120 20l152 -563l151 552h83l150 -552l152 563l120 -20l-200 -712h-117l-149 531l-145 -531h-116z" />
<glyph unicode="X" horiz-adv-x="622" d="M-9 17l244 369l-213 319l120 29l168 -270l171 273l118 -32l-213 -319l244 -369l-122 -28l-198 314l-196 -314z" />
<glyph unicode="Y" horiz-adv-x="549" d="M-16 710l126 22l176 -361l163 361l121 -22l-346 -721l-128 27l123 245z" />
<glyph unicode="Z" horiz-adv-x="564" d="M0 0l357 613h-331l25 108h500l-355 -613h366l-26 -108h-536z" />
<glyph unicode="[" horiz-adv-x="245" d="M57 -126v948h169v-67h-68v-814h68v-67h-169z" />
<glyph unicode="\" horiz-adv-x="326" d="M43 720h90l126 -720h-90z" />
<glyph unicode="]" horiz-adv-x="245" d="M19 -126v67h69v814h-69v67h169v-948h-169z" />
<glyph unicode="^" horiz-adv-x="339" d="M1 570l100 142h137l100 -143h-96l-72 105l-72 -104h-97z" />
<glyph unicode="_" horiz-adv-x="482" d="M43 -32v32h360v-32h-360z" />
<glyph unicode="`" horiz-adv-x="209" d="M-32 721h128l78 -151h-92z" />
<glyph unicode="a" horiz-adv-x="554" d="M378 308v34q0 41 -9 59q-28 52 -115 52q-62 0 -164 -36l27 98l37 8q67 14 126 14q159 0 207 -113l7 -27l2 -76v-316l-109 -10v68q-61 -76 -152 -76q-86 0 -143.5 54.5t-57.5 136.5q0 81 55 133t140 52q78 0 149 -55zM144 176q0 -45 34 -74.5t86 -29.5q53 0 86 29t33 75 q0 45 -33.5 75t-87.5 30q-53 0 -85.5 -29t-32.5 -76z" />
<glyph unicode="b" horiz-adv-x="650" d="M170 449q69 86 179 86q113 0 189.5 -78.5t76.5 -194.5q0 -117 -79 -196t-199 -79q-127 0 -203.5 83.5t-76.5 220.5v428l113 15v-285zM173 262q0 -72 48 -121.5t117 -49.5t117 49.5t48 121.5q0 70 -48.5 119.5t-116.5 49.5q-69 0 -117 -49t-48 -120z" />
<glyph unicode="c" horiz-adv-x="518" d="M497 469l-73 -74q-45 36 -107 36q-70 0 -118 -49t-48 -120q0 -73 48 -122.5t118 -49.5q66 0 113 47l72 -83q-77 -68 -191 -68q-116 0 -196 79.5t-80 196.5q0 114 80.5 193.5t196.5 79.5q78 0 139 -34q12 -7 22.5 -14t23.5 -18z" />
<glyph unicode="d" horiz-adv-x="643" d="M472 450v272l114 12v-726l-110 -16v88q-73 -94 -177 -94q-110 0 -187 79t-77 196q0 115 76.5 194t191.5 79q100 0 169 -84zM311 430q-69 0 -117 -48.5t-48 -120.5q0 -71 48.5 -120.5t116.5 -49.5q69 0 117.5 48.5t48.5 121.5q0 70 -48.5 119.5t-117.5 49.5z" />
<glyph unicode="e" horiz-adv-x="573" d="M557 394l-370 -238q52 -70 132 -70q84 0 159 78l72 -70q-22 -26 -43 -42q-84 -66 -190 -66q-119 0 -200.5 78t-81.5 195q0 116 78 195t197 79q141 0 247 -139zM147 232l263 168q-49 38 -104 38q-66 0 -114.5 -49t-48.5 -119z" />
<glyph unicode="f" horiz-adv-x="267" d="M-2 430l17 88h50v8q0 216 205 216l27 -1l23 -95l-14 1l-12 1q-65 0 -92 -27q-24 -27 -24 -93v-10h127l-10 -88h-117v-422l-113 -16v438h-67z" />
<glyph unicode="g" horiz-adv-x="524" d="M6 -118l70 81q69 -77 166 -77q60 0 97.5 32t37.5 84q0 54 -40 86.5t-108 32.5q-28 0 -56 -5t-68 -18l32 62q-110 45 -110 165q0 88 64.5 147.5t162.5 59.5q39 0 87 -14l48 12l56 13q21 5 26 6t25 8l-11 -78l-27 2q-21 0 -44 -5l23 -25q46 -55 46 -127q0 -109 -99 -153 q111 -50 111 -173q0 -92 -70.5 -150.5t-181.5 -58.5q-69 0 -118 19t-119 74zM255 442q-50 0 -82 -32q-32 -30 -32 -81q0 -48 32 -83q33 -33 82 -33q47 0 81.5 33.5t34.5 82.5q0 48 -33.5 80.5t-82.5 32.5z" />
<glyph unicode="h" horiz-adv-x="555" d="M57 -8v731l111 14v-289q54 87 163 87q66 0 109.5 -34t52.5 -93l4 -90v-310l-113 -16v323q0 21 -1.5 39.5t-9.5 35.5q-21 46 -82 46q-48 0 -83.5 -35.5t-35.5 -85.5v-305z" />
<glyph unicode="i" horiz-adv-x="229" d="M57 -8v522l115 15v-521zM40 678l75 81l75 -81l-75 -82z" />
<glyph unicode="j" horiz-adv-x="236" d="M-78 -106l33 -3q48 0 78.5 30.5t30.5 83.5v509l113 15v-534q0 -87 -55 -143t-143 -56l-25 1zM45 678l76 81l75 -81l-75 -82z" />
<glyph unicode="k" horiz-adv-x="496" d="M57 -8v731l114 14v-461l195 262l110 -28l-185 -236l210 -248l-109 -37l-221 272v-253z" />
<glyph unicode="l" horiz-adv-x="228" d="M57 -8v731l114 14v-729z" />
<glyph unicode="m" horiz-adv-x="827" d="M57 -8v522l109 14v-87q4 9 9 18q2 3 13 18q43 58 126 58q57 0 92 -25q30 -21 48 -67l23 32q51 60 136 60q73 0 115.5 -47t42.5 -132v-348l-112 -16v317v35q-3 21 -5 38t-25.5 33.5t-54.5 16.5q-65 0 -95 -70q-11 -27 -11 -84v-270l-110 -16v349q0 31 -7 46q-21 48 -77 48 q-45 0 -75.5 -41t-30.5 -100v-293z" />
<glyph unicode="n" horiz-adv-x="551" d="M57 -8v522l111 14v-80l21 30q51 57 139 57q90 0 134 -59q32 -44 32 -133l1 -335l-113 -16v330q0 51 -11 70q-20 44 -80 44q-51 0 -86 -36.5t-35 -90.5v-300z" />
<glyph unicode="o" horiz-adv-x="625" d="M35 259q0 117 79 196t198 79t198.5 -78.5t79.5 -196.5q0 -117 -78.5 -195t-199.5 -78q-119 0 -198 78t-79 195zM312 431q-69 0 -117.5 -49t-48.5 -123q0 -71 48.5 -120.5t117.5 -49.5t118 49t49 121t-48.5 122t-118.5 50z" />
<glyph unicode="p" horiz-adv-x="645" d="M57 -204v716l111 19v-88q39 50 80 70q39 21 98 21q114 0 189.5 -79t75.5 -196q0 -114 -75.5 -194t-184.5 -80q-104 0 -181 90v-265zM333 430q-69 0 -117 -49.5t-48 -121.5q0 -70 48.5 -119.5t116.5 -49.5q69 0 117 48.5t48 120.5q0 71 -48 121t-117 50z" />
<glyph unicode="q" horiz-adv-x="645" d="M478 443v73l110 12v-718l-112 -14v279q-75 -90 -183 -90t-183 79.5t-75 194.5q0 118 75 196.5t186 78.5q59 0 100.5 -20.5t81.5 -70.5zM312 430q-69 0 -117 -49.5t-48 -121.5q0 -70 48.5 -119.5t116.5 -49.5q69 0 117.5 49t48.5 120q0 72 -48.5 121.5t-117.5 49.5z" />
<glyph unicode="r" horiz-adv-x="345" d="M57 -8v522l109 15v-112q29 58 53 78q46 40 120 40q21 0 32 -2l-35 -109l-20 1q-63 0 -104 -54.5t-41 -138.5v-224z" />
<glyph unicode="s" horiz-adv-x="425" d="M22 35l42 90q62 -41 115 -41q46 0 72.5 20.5t26.5 52.5q0 38 -65 62l-45 15l-32 10q-44 13 -68 34q-38 33 -38 97q0 72 53 116.5t139 44.5q76 0 166 -45l-38 -87q-16 11 -36 19q-42 16 -78 16q-38 0 -65 -18q-25 -19 -25 -47q0 -24 17 -37q11 -7 52 -23l42 -15l59 -21 q81 -35 81 -129q0 -71 -56.5 -117.5t-142.5 -46.5q-59 0 -124 25q-25 9 -52 25z" />
<glyph unicode="t" horiz-adv-x="281" d="M-5 430l19 88h45v99l114 55v-154h133l-16 -88h-117v-240q0 -100 85 -100q15 0 47 6l-12 -100l-35 -5h-24q-81 0 -127 43q-26 24 -38 60q-4 15 -7 40.5t-3 56.5v239h-64z" />
<glyph unicode="u" horiz-adv-x="552" d="M385 70l-21 -27q-48 -56 -135 -56q-69 0 -116 39q-43 39 -52 107l-4 89v292l113 15v-323q0 -39 3 -56q12 -61 89 -61q39 0 70 22.5t44 61.5q3 11 5 27.5t2 42.5v271l112 15v-521l-110 -14v76z" />
<glyph unicode="v" horiz-adv-x="488" d="M-14 510l108 22l150 -387l150 387l109 -22l-220 -510h-80z" />
<glyph unicode="w" horiz-adv-x="787" d="M-12 510l108 22l131 -371l147 360h45l141 -360l131 371l107 -22l-192 -510h-72l-139 348l-144 -348h-70z" />
<glyph unicode="x" horiz-adv-x="478" d="M5 14l154 249l-150 244l108 28l120 -200l126 200l108 -28l-156 -241l153 -252l-111 -28l-121 214l-118 -214z" />
<glyph unicode="y" horiz-adv-x="480" d="M-23 507l112 28l160 -360l146 360l107 -28l-306 -710l-113 22l111 249z" />
<glyph unicode="z" horiz-adv-x="479" d="M3 0l285 421h-248l22 100h408l-285 -419h290l-24 -102h-448z" />
<glyph unicode="{" horiz-adv-x="351" d="M43 360q25 0 46 21q18 20 18 51v326q0 77 84 77h91v-53h-12q-32 0 -46 -12q-11 -13 -11 -45v-282q0 -31 -21.5 -55t-53.5 -28q31 -3 53 -28q11 -11 16.5 -24.5t5.5 -30.5v-282q0 -34 11.5 -45.5t45.5 -11.5h12v-53h-91q-84 0 -84 77v326q0 29 -18 49t-46 23z" />
<glyph unicode="|" horiz-adv-x="190" d="M43 0v720h90v-720h-90z" />
<glyph unicode="}" horiz-adv-x="351" d="M43 -115v53h12q32 0 45 12t13 45v282q0 31 21 54.5t54 28.5q-31 3 -54 27q-21 24 -21 56v282q0 33 -12 45t-46 12h-12v53h91q85 0 85 -77v-326q0 -30 18 -51q18 -18 45 -21q-26 0 -45 -22q-18 -18 -18 -50v-326q0 -77 -85 -77h-91z" />
<glyph unicode="~" horiz-adv-x="394" d="M1 813q56 68 127 68q34 0 59 -11l9 -4l35 -14q15 -6 27 -6q43 0 78 35l56 -49q-64 -67 -130 -67q-22 0 -45 10l-7 4l-47 19q-14 6 -30 6q-35 0 -70 -38z" />
<glyph unicode="&#xa1;" horiz-adv-x="235" d="M36 642l81 95l81 -95l-81 -96zM50 -5l12 512l111 15v-517z" />
<glyph unicode="&#xa2;" horiz-adv-x="526" d="M282 534v58h44v-58q95 0 171 -65l-73 -74q-35 29 -99 35v-339q29 0 60 13.5t58 32.5l65 -86q-49 -36 -116 -54q-21 -5 -36 -8.5t-33 -3.5v-55h-41v56q-114 18 -180.5 92t-66.5 181q0 109 66 183t181 92zM282 428q-57 -10 -93.5 -57.5t-36.5 -111.5q0 -60 35.5 -104.5 t94.5 -61.5v335z" />
<glyph unicode="&#xa3;" horiz-adv-x="603" d="M19 0l4 103h88v225h-75l15 94h60v67q0 74 13 114q18 58 72.5 94t127.5 36q89 0 147.5 -54t58.5 -135l-106 -9q-11 97 -101 97q-32 0 -57 -16t-34 -44q-5 -17 -5 -60v-89h134v-95h-134v-224h55h39h24q13 2 17 2q50 4 82 45q15 20 23.5 52.5t8.5 73.5l105 -19q0 -22 -3 -45 t-10 -48q-24 -90 -83 -127.5t-173 -37.5h-293z" />
<glyph unicode="&#xa5;" horiz-adv-x="624" d="M19 710l127 22l175 -361l162 361l122 -22l-171 -373h153v-53h-183l-21 -45h202v-53l-230 -1l-97 -196l-126 27l85 169h-180v56h208l10 20l-12 24l-207 -1l1 59h179z" />
<glyph unicode="&#xa7;" horiz-adv-x="609" d="M146 464q-50 41 -50 100q0 73 62 121.5t158 48.5q114 0 173 -59q30 -30 54 -105l-95 -27q-17 113 -129 113q-50 0 -81.5 -23t-31.5 -60q0 -29 21 -53q13 -14 47 -30l193 -89q107 -48 107 -157q0 -91 -100 -158q45 -41 45 -103q0 -75 -61.5 -125t-156.5 -50q-93 0 -154 43 q-28 21 -55 64q-13 22 -25 58l96 24q27 -113 136 -113q50 0 81 25t31 64q0 54 -62 85l-203 97q-49 23 -74 45q-40 37 -40 99q0 102 114 165zM417 316l-208 95q-70 -40 -70 -95q0 -51 57 -78l208 -96q67 34 67 93q0 55 -54 81z" />
<glyph unicode="&#xa8;" horiz-adv-x="334" d="M1 643l68 75l68 -75l-68 -74zM197 643l68 75l68 -75l-68 -74z" />
<glyph unicode="&#xa9;" horiz-adv-x="932" d="M58 361q0 153 109 262.5t264 109.5t264 -109t109 -263t-109 -263.5t-264 -109.5t-264 109t-109 264zM112 361q0 -132 93 -228.5t226 -96.5t226 95.5t93 228.5q0 135 -93.5 230t-225.5 95q-131 0 -225 -95.5t-94 -228.5zM602 541l-33 -47q-52 44 -119 44q-64 0 -113 -41.5 t-61 -108.5l-3 -32q0 -38 12 -69t38 -58q52 -52 125 -52q69 0 120 44l33 -47q-32 -27 -70 -41.5t-81 -14.5q-104 0 -173.5 68t-69.5 167q0 22 4 46t13 47q25 68 84.5 109.5t134.5 41.5q94 0 159 -56z" />
<glyph unicode="&#xaa;" horiz-adv-x="482" d="M53 336h350v-68h-350v68zM329 655v65h74v-335h-75v69l-3 -8l-4 -8q-31 -61 -115 -61q-31 0 -63 12q-48 19 -76 67q-24 42 -24 98q0 77 48 127t113 50q81 0 116 -60zM120 554q0 -16 2 -23q12 -74 83 -87q14 -2 21 -2q37 0 67 27q37 34 37 84q0 73 -62 103q-11 5 -15 6 q-13 4 -29 4q-37 0 -65.5 -24.5t-37.5 -67.5z" />
<glyph unicode="&#xab;" horiz-adv-x="442" d="M195 277l156 216l72 -49l-124 -168l119 -175l-71 -49zM19 277l157 216l72 -49l-124 -168l119 -175l-71 -49z" />
<glyph unicode="&#xac;" horiz-adv-x="638" d="M43 360v90h504v-234h-72v144h-432z" />
<glyph unicode="&#xae;" horiz-adv-x="932" d="M58 361q0 153 109 262.5t264 109.5t264 -109t109 -263t-109 -263.5t-264 -109.5t-264 109t-109 264zM112 361q0 -132 93 -228.5t226 -96.5t226 95.5t93 228.5q0 135 -93.5 230t-225.5 95q-131 0 -225 -95.5t-94 -228.5zM311 135v460h114q72 0 105 -27q45 -36 45 -103 q0 -51 -33.5 -86t-83.5 -35l141 -209h-77l-146 223v-223h-65zM376 381h38q94 0 94 79q0 81 -89 81h-43v-160z" />
<glyph unicode="&#xaf;" horiz-adv-x="292" d="M1 584v75h290v-75h-290z" />
<glyph unicode="&#xb1;" horiz-adv-x="594" d="M506 87v-68h-462v68h462zM309 453v-122h197v-68h-197v-122h-68v122h-197v68h197v122h68z" />
<glyph unicode="&#xb4;" horiz-adv-x="214" d="M42 570l76 151h126l-112 -151h-90z" />
<glyph unicode="&#xb5;" horiz-adv-x="623" d="M166 449v-296q0 -58 7 -78q13 -41 57 -41q72 0 108 114q25 83 25 171v130h92v-328q0 -87 38 -87q43 0 43 82v14h21l1 -9v-13q0 -117 -90 -117q-102 0 -102 172q-31 -124 -98 -158q-26 -14 -60 -14q-86 0 -113 103v-11l-1 -17q0 -55 32 -136t32 -97q0 -42 -42 -42 q-43 0 -43 70l1 73l3 74l-1 101l-2 95v245h92z" />
<glyph unicode="&#xb6;" horiz-adv-x="649" d="M241 720h316v-58h-316q-58 0 -99 -41.5t-41 -102.5q0 -57 41.5 -98.5t98.5 -41.5h67v238h61v-616h-61v320h-67q-81 0 -139.5 59t-58.5 141q0 83 57.5 141.5t140.5 58.5zM434 0v616h61v-616h-61z" />
<glyph unicode="&#xb7;" horiz-adv-x="201" d="M19 288l82 95l81 -95l-81 -97z" />
<glyph unicode="&#xb8;" horiz-adv-x="158" d="M43 -234l45 68q10 17 10 46q0 21 -35 50l75 46q45 -41 45 -87q0 -15 -5 -26q-1 -8 -6 -20t-14 -27l-50 -69z" />
<glyph unicode="&#xba;" horiz-adv-x="482" d="M49 268v68h349v-68h-349zM43 554q0 74 51 128t127 54h22q11 -3 16 -4q62 -12 103.5 -62t41.5 -115v-22q-3 -11 -4 -16q-12 -63 -61.5 -103.5t-114.5 -40.5h-22q-11 3 -15 4q-63 12 -103.5 62.5t-40.5 114.5zM117 554q0 -44 30 -79q30 -32 76 -32q44 0 76 33q30 33 30 79 q0 58 -45 91q-28 20 -62 20q-45 0 -75 -33t-30 -79z" />
<glyph unicode="&#xbb;" horiz-adv-x="442" d="M19 101l124 168l-119 176l70 48l154 -224l-158 -217zM195 101l123 168l-119 176l71 48l153 -224l-157 -217z" />
<glyph unicode="&#xbf;" horiz-adv-x="453" d="M152 648l82 95l81 -95l-81 -97zM445 125q-66 -139 -213 -139q-91 0 -150 58.5t-59 145.5q0 39 14 73.5t29 52t69 54.5q34 23 43 35t9 40v56l98 13v-77q0 -32 -3.5 -47t-15.5 -38q-12 -17 -23 -26l-30 -18q-76 -46 -76 -113q0 -42 30 -74q31 -29 75 -29q80 0 114 89z" />
<glyph unicode="&#xc0;" horiz-adv-x="705" d="M-21 11l335 710h81l330 -710l-126 -22l-109 240h-274l-110 -240zM355 583l-104 -253h205zM188 955h128l78 -151h-92z" />
<glyph unicode="&#xc1;" horiz-adv-x="705" d="M-21 11l335 710h81l330 -710l-126 -22l-109 240h-274l-110 -240zM355 583l-104 -253h205zM316 804l76 151h126l-112 -151h-90z" />
<glyph unicode="&#xc2;" horiz-adv-x="705" d="M-21 11l335 710h81l330 -710l-126 -22l-109 240h-274l-110 -240zM355 583l-104 -253h205zM191 804l100 142h137l100 -143h-96l-72 105l-72 -104h-97z" />
<glyph unicode="&#xc3;" horiz-adv-x="705" d="M-21 11l335 710h81l330 -710l-126 -22l-109 240h-274l-110 -240zM355 583l-104 -253h205zM199 848q52 64 111 64q36 0 53 -11l8 -3l31 -14l24 -5q33 0 68 33l50 -47q-57 -62 -116 -62q-14 0 -20.5 1.5t-18.5 6.5l-6 4l-35 16l-6 2q-12 6 -26 6q-28 0 -63 -35z" />
<glyph unicode="&#xc4;" horiz-adv-x="705" d="M-21 11l329 721h93l324 -721l-126 -22l-109 240h-274l-110 -240zM188 832l70 76l70 -76l-70 -76zM388 832l70 76l69 -76l-69 -76zM251 330h205l-101 253z" />
<glyph unicode="&#xc5;" horiz-adv-x="705" d="M-21 11l329 721h93l324 -721l-126 -22l-109 240h-274l-110 -240zM265 839q0 38 27.5 66.5t66.5 28.5t67 -28t28 -67t-27.5 -66.5t-67.5 -27.5q-38 0 -66 27t-28 67zM251 330h205l-101 253zM359 880q-15 0 -29 -12q-11 -13 -11 -29q0 -14 12 -27t28 -13q15 0 28 12t13 28 q0 15 -12 28t-29 13z" />
<glyph unicode="&#xc6;" horiz-adv-x="971" d="M-21 13l476 708h457l26 -109h-297v-200h239v-100h-239v-205h318l-27 -107h-414v279h-223l-192 -295zM517 625l-158 -244h158v244z" />
<glyph unicode="&#xc7;" horiz-adv-x="601" d="M578 702l-31 -112q-16 10 -32 15q-36 12 -84 12q-110 0 -186.5 -74.5t-76.5 -183.5q0 -110 75.5 -184t187.5 -74q68 0 131 38l23 -115q-14 -6 -28.5 -12t-30.5 -11q-54 -16 -104 -16q-166 0 -276.5 107t-110.5 267q0 155 111.5 265.5t271.5 110.5q60 0 111 -15zM325 -232 l45 67q11 16 11 46q0 20 -36 50l76 46q44 -41 44 -87q0 -14 -4.5 -29.5t-20.5 -43.5l-50 -69z" />
<glyph unicode="&#xc8;" horiz-adv-x="519" d="M57 0v721h401l28 -108h-303v-195h243v-100h-243v-211h323l-26 -107h-423zM103 955h128l78 -151h-92z" />
<glyph unicode="&#xc9;" horiz-adv-x="519" d="M57 0v721h401l28 -108h-303v-195h243v-100h-243v-211h323l-26 -107h-423zM224 804l76 151h126l-112 -151h-90z" />
<glyph unicode="&#xca;" horiz-adv-x="519" d="M57 0v721h401l28 -108h-303v-195h243v-100h-243v-211h323l-26 -107h-423zM100 804l100 142h137l100 -143h-96l-72 105l-72 -104h-97z" />
<glyph unicode="&#xcb;" horiz-adv-x="519" d="M113 877l68 75l68 -75l-68 -74zM309 877l68 75l68 -75l-68 -74zM57 0v721h401l28 -108h-303v-195h243v-100h-243v-211h323l-26 -107h-423z" />
<glyph unicode="&#xcc;" horiz-adv-x="240" d="M57 -8v722l126 14v-720zM-37 955h128l78 -151h-92z" />
<glyph unicode="&#xcd;" horiz-adv-x="240" d="M57 -8v722l126 14v-720zM84 804l76 151h126l-112 -151h-90z" />
<glyph unicode="&#xce;" horiz-adv-x="240" d="M57 -8v722l126 14v-720zM-42 804l100 142h137l100 -143h-96l-72 105l-72 -104h-97z" />
<glyph unicode="&#xcf;" horiz-adv-x="240" d="M57 -8v722l126 14v-720zM-37 877l68 75l68 -75l-68 -74zM159 877l68 75l68 -75l-68 -74z" />
<glyph unicode="&#xd1;" horiz-adv-x="737" d="M57 -8v729h71l428 -500v493l125 14v-728h-71l-428 493v-485zM216 848q52 64 111 64q36 0 53 -11l8 -3l31 -14l24 -5q33 0 68 33l50 -47q-57 -62 -116 -62q-14 0 -20.5 1.5t-18.5 6.5l-6 4l-35 16l-6 2q-12 6 -26 6q-28 0 -63 -35z" />
<glyph unicode="&#xd2;" horiz-adv-x="825" d="M35 359q0 161 108 267.5t269 106.5q163 0 270.5 -107t107.5 -267q0 -159 -108.5 -266.5t-268.5 -107.5q-162 0 -270 106.5t-108 267.5zM412 621q-106 0 -179.5 -76.5t-73.5 -185.5t73.5 -185.5t179.5 -76.5q104 0 178.5 76.5t74.5 185.5q0 108 -74 185t-179 77zM256 955 h128l78 -151h-92z" />
<glyph unicode="&#xd3;" horiz-adv-x="825" d="M35 359q0 161 108 267.5t269 106.5q163 0 270.5 -107t107.5 -267q0 -159 -108.5 -266.5t-268.5 -107.5q-162 0 -270 106.5t-108 267.5zM412 621q-106 0 -179.5 -76.5t-73.5 -185.5t73.5 -185.5t179.5 -76.5q104 0 178.5 76.5t74.5 185.5q0 108 -74 185t-179 77zM367 804 l76 151h126l-112 -151h-90z" />
<glyph unicode="&#xd4;" horiz-adv-x="825" d="M35 359q0 161 108 267.5t269 106.5q163 0 270.5 -107t107.5 -267q0 -159 -108.5 -266.5t-268.5 -107.5q-162 0 -270 106.5t-108 267.5zM412 621q-106 0 -179.5 -76.5t-73.5 -185.5t73.5 -185.5t179.5 -76.5q104 0 178.5 76.5t74.5 185.5q0 108 -74 185t-179 77zM251 804 l100 142h137l100 -143h-96l-72 105l-72 -104h-97z" />
<glyph unicode="&#xd5;" horiz-adv-x="825" d="M35 359q0 161 108 267.5t269 106.5q163 0 270.5 -107t107.5 -267q0 -159 -108.5 -266.5t-268.5 -107.5q-162 0 -270 106.5t-108 267.5zM412 621q-106 0 -179.5 -76.5t-73.5 -185.5t73.5 -185.5t179.5 -76.5q104 0 178.5 76.5t74.5 185.5q0 108 -74 185t-179 77zM260 848 q52 64 111 64q36 0 53 -11l8 -3l31 -14l24 -5q33 0 68 33l50 -47q-57 -62 -116 -62q-14 0 -20.5 1.5t-18.5 6.5l-6 4l-35 16l-6 2q-12 6 -26 6q-28 0 -63 -35z" />
<glyph unicode="&#xd6;" horiz-adv-x="825" d="M35 359q0 161 108 267.5t269 106.5q163 0 270.5 -107t107.5 -267q0 -159 -108.5 -266.5t-268.5 -107.5q-162 0 -270 106.5t-108 267.5zM412 621q-106 0 -179.5 -76.5t-73.5 -185.5t73.5 -185.5t179.5 -76.5q104 0 178.5 76.5t74.5 185.5q0 108 -74 185t-179 77zM249 832 l70 76l69 -76l-69 -76zM449 832l69 76l70 -76l-70 -76z" />
<glyph unicode="&#xd8;" horiz-adv-x="825" d="M664 639l71 75l31 -28l-70 -74l35 -47q59 -89 59 -207q0 -158 -108.5 -265.5t-268.5 -107.5q-39 0 -70 5t-66 18q-50 18 -107 58l-64 -67l-34 33l67 66l-42 50q-62 85 -62 211q0 161 108 267.5t270 106.5q36 0 66.5 -5t67.5 -18q55 -19 117 -71zM611 523l-355 -366 q36 -32 64 -42q48 -18 91 -18q105 0 179.5 76.5t74.5 184.5q0 74 -36 136zM224 185l358 372q-31 23 -72 41q-43 17 -94 17q-106 0 -179 -74.5t-73 -183.5q0 -77 36 -139z" />
<glyph unicode="&#xd9;" horiz-adv-x="680" d="M623 728v-446v-15v-12q0 -43 -4 -63q-6 -46 -29 -86q-29 -56 -96.5 -88.5t-152.5 -32.5q-94 0 -164 38q-78 42 -106 125q-14 44 -14 134v432l126 14v-447q0 -80 23 -119q38 -64 135 -64q93 0 133 64q23 38 23 119v433zM201 955h128l78 -151h-92z" />
<glyph unicode="&#xda;" horiz-adv-x="680" d="M623 728v-446v-15v-12q0 -43 -4 -63q-6 -46 -29 -86q-29 -56 -96.5 -88.5t-152.5 -32.5q-94 0 -164 38q-78 42 -106 125q-14 44 -14 134v432l126 14v-447q0 -80 23 -119q38 -64 135 -64q93 0 133 64q23 38 23 119v433zM305 804l76 151h126l-112 -151h-90z" />
<glyph unicode="&#xdb;" horiz-adv-x="680" d="M623 728v-446v-15v-12q0 -43 -4 -63q-6 -46 -29 -86q-29 -56 -96.5 -88.5t-152.5 -32.5q-94 0 -164 38q-78 42 -106 125q-14 44 -14 134v432l126 14v-447q0 -80 23 -119q38 -64 135 -64q93 0 133 64q23 38 23 119v433zM191 804l100 142h137l100 -143h-96l-72 105 l-72 -104h-97z" />
<glyph unicode="&#xdc;" horiz-adv-x="680" d="M623 728v-446v-15v-12q0 -43 -4 -63q-6 -46 -29 -86q-29 -56 -96.5 -88.5t-152.5 -32.5q-94 0 -164 38q-78 42 -106 125q-14 44 -14 134v432l126 14v-447q0 -80 23 -119q38 -64 135 -64q93 0 133 64q23 38 23 119v433zM190 832l70 76l69 -76l-69 -76zM390 832l69 76 l70 -76l-70 -76z" />
<glyph unicode="&#xdf;" horiz-adv-x="641" d="M57 347l19 96h55v61q0 108 58.5 173t156.5 65q88 0 148.5 -56t60.5 -138q0 -107 -86 -149q137 -42 137 -188q0 -96 -60.5 -159.5t-153.5 -63.5q-76 0 -127 41q-14 11 -31 39v-122l-106 -24v425h-71zM240 504v-307l24 6q6 -51 38 -83q32 -30 79 -30q48 0 80.5 35t32.5 87 q0 60 -44.5 96t-118.5 36h-21v87h10l6 -1q51 0 85.5 30.5t34.5 78.5q0 42 -29 71q-27 29 -71 29q-106 0 -106 -135z" />
<glyph unicode="&#xe0;" horiz-adv-x="554" d="M378 308v34q0 41 -9 59q-28 52 -115 52q-62 0 -164 -36l27 98l37 8q67 14 126 14q159 0 207 -113l7 -27l2 -76v-316l-109 -10v68q-61 -76 -152 -76q-86 0 -143.5 54.5t-57.5 136.5q0 81 55 133t140 52q78 0 149 -55zM144 176q0 -45 34 -74.5t86 -29.5q53 0 86 29t33 75 q0 45 -33.5 75t-87.5 30q-53 0 -85.5 -29t-32.5 -76zM131 721h128l78 -151h-92z" />
<glyph unicode="&#xe1;" horiz-adv-x="554" d="M378 308v34q0 41 -9 59q-28 52 -115 52q-62 0 -164 -36l27 98l37 8q67 14 126 14q159 0 207 -113l7 -27l2 -76v-316l-109 -10v68q-61 -76 -152 -76q-86 0 -143.5 54.5t-57.5 136.5q0 81 55 133t140 52q78 0 149 -55zM144 176q0 -45 34 -74.5t86 -29.5q53 0 86 29t33 75 q0 45 -33.5 75t-87.5 30q-53 0 -85.5 -29t-32.5 -76zM240 570l76 151h126l-112 -151h-90z" />
<glyph unicode="&#xe2;" horiz-adv-x="554" d="M378 308v34q0 41 -9 59q-28 52 -115 52q-62 0 -164 -36l27 98l37 8q67 14 126 14q159 0 207 -113l7 -27l2 -76v-316l-109 -10v68q-61 -76 -152 -76q-86 0 -143.5 54.5t-57.5 136.5q0 81 55 133t140 52q78 0 149 -55zM144 176q0 -45 34 -74.5t86 -29.5q53 0 86 29t33 75 q0 45 -33.5 75t-87.5 30q-53 0 -85.5 -29t-32.5 -76zM118 570l100 142h137l100 -143h-96l-72 105l-72 -104h-97z" />
<glyph unicode="&#xe3;" horiz-adv-x="554" d="M378 308v34q0 41 -9 59q-28 52 -115 52q-62 0 -164 -36l27 98l37 8q67 14 126 14q159 0 207 -113l7 -27l2 -76v-316l-109 -10v68q-61 -76 -152 -76q-86 0 -143.5 54.5t-57.5 136.5q0 81 55 133t140 52q78 0 149 -55zM144 176q0 -45 34 -74.5t86 -29.5q53 0 86 29t33 75 q0 45 -33.5 75t-87.5 30q-53 0 -85.5 -29t-32.5 -76zM126 614q52 64 111 64q36 0 53 -11l8 -3l31 -14l24 -5q33 0 68 33l50 -47q-57 -62 -116 -62q-14 0 -20.5 1.5t-18.5 6.5l-6 4l-35 16l-6 2q-12 6 -26 6q-28 0 -63 -35z" />
<glyph unicode="&#xe4;" horiz-adv-x="554" d="M378 308v34q0 41 -9 59q-28 52 -115 52q-62 0 -164 -36l27 98l37 8q67 14 126 14q159 0 207 -113l7 -27l2 -76v-316l-109 -10v68q-61 -76 -152 -76q-86 0 -143.5 54.5t-57.5 136.5q0 81 55 133t140 52q78 0 149 -55zM144 176q0 -45 34 -74.5t86 -29.5q53 0 86 29t33 75 q0 45 -33.5 75t-87.5 30q-53 0 -85.5 -29t-32.5 -76zM134 643l68 75l68 -75l-68 -74zM330 643l68 75l68 -75l-68 -74z" />
<glyph unicode="&#xe5;" horiz-adv-x="554" d="M378 308v34q0 41 -9 59q-28 52 -115 52q-62 0 -164 -36l27 98l37 8q67 14 126 14q159 0 207 -113l7 -27l2 -76v-316l-109 -10v68q-61 -76 -152 -76q-86 0 -143.5 54.5t-57.5 136.5q0 81 55 133t140 52q78 0 149 -55zM144 176q0 -45 34 -74.5t86 -29.5q53 0 86 29t33 75 q0 45 -33.5 75t-87.5 30q-53 0 -85.5 -29t-32.5 -76zM205 656q0 38 27.5 66.5t66.5 28.5t67 -28t28 -67t-27.5 -66.5t-67.5 -27.5q-38 0 -66 27t-28 67zM299 697q-14 0 -27 -12t-13 -29q0 -14 12 -27t28 -13q15 0 28 12t13 28q0 15 -12 28t-29 13z" />
<glyph unicode="&#xe6;" horiz-adv-x="885" d="M361 293v57q0 98 -117 98q-24 0 -51.5 -4t-57 -12.5t-65.5 -26.5l37 109q74 23 160 23q70 0 111 -21t65 -70q86 90 193 90q153 0 232 -139l-359 -227q19 -26 40 -42q50 -36 109 -36q79 0 160 65l36 -96q-108 -72 -206 -72q-101 0 -172 57q-28 22 -54 59 q-60 -116 -197 -116q-83 0 -137 53t-54 134t50.5 131.5t131.5 50.5q90 0 145 -65zM246 282q-44 0 -77.5 -30.5t-33.5 -73.5t33 -72t77 -29q49 0 82.5 28.5t33.5 72.5q0 42 -34 73t-81 31zM476 239l253 161q-48 42 -101 42q-65 0 -110.5 -48.5t-45.5 -117.5q0 -22 4 -37z" />
<glyph unicode="&#xe7;" horiz-adv-x="519" d="M506 472l-65 -86q-55 40 -117 40q-71 0 -120 -47.5t-49 -117.5q0 -69 48 -118.5t114 -49.5q64 0 126 44l65 -86q-42 -30 -77 -43q-61 -23 -116 -23q-118 0 -199 78.5t-81 195.5q0 116 81.5 196t200.5 80q87 0 181 -58zM227 -232l44 67q11 17 11 46q0 20 -36 50l76 46 q44 -41 44 -87q0 -13 -4 -26.5t-7.5 -22.5t-12.5 -24l-50 -69z" />
<glyph unicode="&#xe8;" horiz-adv-x="573" d="M557 394l-370 -238q52 -70 132 -70q84 0 159 78l72 -70q-22 -26 -43 -42q-84 -66 -190 -66q-119 0 -200.5 78t-81.5 195q0 116 78 195t197 79q141 0 247 -139zM147 232l263 168q-49 38 -104 38q-66 0 -114.5 -49t-48.5 -119zM161 721h128l78 -151h-92z" />
<glyph unicode="&#xe9;" horiz-adv-x="573" d="M557 394l-370 -238q52 -70 132 -70q84 0 159 78l72 -70q-22 -26 -43 -42q-84 -66 -190 -66q-119 0 -200.5 78t-81.5 195q0 116 78 195t197 79q141 0 247 -139zM147 232l263 168q-49 38 -104 38q-66 0 -114.5 -49t-48.5 -119zM271 570l76 151h126l-112 -151h-90z" />
<glyph unicode="&#xea;" horiz-adv-x="573" d="M557 394l-370 -238q52 -70 132 -70q84 0 159 78l72 -70q-22 -26 -43 -42q-84 -66 -190 -66q-119 0 -200.5 78t-81.5 195q0 116 78 195t197 79q141 0 247 -139zM147 232l263 168q-49 38 -104 38q-66 0 -114.5 -49t-48.5 -119zM148 570l100 142h137l100 -143h-96l-72 105 l-72 -104h-97z" />
<glyph unicode="&#xeb;" horiz-adv-x="573" d="M557 394l-370 -238q52 -70 132 -70q84 0 159 78l72 -70q-22 -26 -43 -42q-84 -66 -190 -66q-119 0 -200.5 78t-81.5 195q0 116 78 195t197 79q141 0 247 -139zM147 232l263 168q-49 38 -104 38q-66 0 -114.5 -49t-48.5 -119zM150 643l68 75l68 -75l-68 -74zM346 643 l68 75l68 -75l-68 -74z" />
<glyph unicode="&#xec;" horiz-adv-x="228" d="M57 -8v522l114 15v-521zM-43 721h128l78 -151h-92z" />
<glyph unicode="&#xed;" horiz-adv-x="228" d="M57 -8v522l114 15v-521zM77 570l76 151h126l-112 -151h-90z" />
<glyph unicode="&#xee;" horiz-adv-x="228" d="M57 -8v522l114 15v-521zM-49 570l100 142h137l100 -143h-96l-72 105l-72 -104h-97z" />
<glyph unicode="&#xef;" horiz-adv-x="228" d="M57 -8v522l114 15v-521zM-48 643l68 75l68 -75l-68 -74zM148 643l68 75l68 -75l-68 -74z" />
<glyph unicode="&#xf1;" horiz-adv-x="551" d="M57 -8v522l111 14v-80l21 30q51 57 139 57q90 0 134 -59q32 -44 32 -133l1 -335l-113 -16v330q0 51 -11 70q-20 44 -80 44q-51 0 -86 -36.5t-35 -90.5v-300zM123 614q52 64 111 64q36 0 53 -11l8 -3l31 -14l24 -5q33 0 68 33l50 -47q-57 -62 -116 -62q-14 0 -20.5 1.5 t-18.5 6.5l-6 4l-35 16l-6 2q-12 6 -26 6q-28 0 -63 -35z" />
<glyph unicode="&#xf2;" horiz-adv-x="625" d="M35 259q0 117 79 196t198 79t198.5 -78.5t79.5 -196.5q0 -117 -78.5 -195t-199.5 -78q-119 0 -198 78t-79 195zM312 431q-69 0 -117.5 -49t-48.5 -123q0 -71 48.5 -120.5t117.5 -49.5t118 49t49 121t-48.5 122t-118.5 50zM157 721h128l78 -151h-92z" />
<glyph unicode="&#xf3;" horiz-adv-x="625" d="M35 259q0 117 79 196t198 79t198.5 -78.5t79.5 -196.5q0 -117 -78.5 -195t-199.5 -78q-119 0 -198 78t-79 195zM312 431q-69 0 -117.5 -49t-48.5 -123q0 -71 48.5 -120.5t117.5 -49.5t118 49t49 121t-48.5 122t-118.5 50zM267 570l76 151h126l-112 -151h-90z" />
<glyph unicode="&#xf4;" horiz-adv-x="625" d="M35 259q0 117 79 196t198 79t198.5 -78.5t79.5 -196.5q0 -117 -78.5 -195t-199.5 -78q-119 0 -198 78t-79 195zM312 431q-69 0 -117.5 -49t-48.5 -123q0 -71 48.5 -120.5t117.5 -49.5t118 49t49 121t-48.5 122t-118.5 50zM149 570l100 142h137l100 -143h-96l-72 105 l-72 -104h-97z" />
<glyph unicode="&#xf5;" horiz-adv-x="625" d="M35 259q0 117 79 196t198 79t198.5 -78.5t79.5 -196.5q0 -117 -78.5 -195t-199.5 -78q-119 0 -198 78t-79 195zM312 431q-69 0 -117.5 -49t-48.5 -123q0 -71 48.5 -120.5t117.5 -49.5t118 49t49 121t-48.5 122t-118.5 50zM160 614q52 64 111 64q36 0 53 -11l8 -3l31 -14 l24 -5q33 0 68 33l50 -47q-57 -62 -116 -62q-14 0 -20.5 1.5t-18.5 6.5l-6 4l-35 16l-6 2q-12 6 -26 6q-28 0 -63 -35z" />
<glyph unicode="&#xf6;" horiz-adv-x="625" d="M35 259q0 117 79 196t198 79t198.5 -78.5t79.5 -196.5q0 -117 -78.5 -195t-199.5 -78q-119 0 -198 78t-79 195zM312 431q-69 0 -117.5 -49t-48.5 -123q0 -71 48.5 -120.5t117.5 -49.5t118 49t49 121t-48.5 122t-118.5 50zM157 643l68 75l68 -75l-68 -74zM353 643l68 75 l68 -75l-68 -74z" />
<glyph unicode="&#xf7;" horiz-adv-x="594" d="M275 158q24 0 40 -16t16 -41q0 -24 -16 -41q-8 -8 -17 -12t-23 -4q-24 0 -40.5 17.5t-16.5 39.5q0 24 16.5 40.5t40.5 16.5zM506 270v-68h-463v68h463zM275 427q22 0 39 -18t17 -39q0 -24 -16 -41q-8 -8 -17 -12t-23 -4q-24 0 -41 16q-16 18 -16 41q0 24 15 39t42 18z " />
<glyph unicode="&#xf8;" horiz-adv-x="619" d="M486 479l50 55l28 -23l-52 -58l32 -40q21 -32 32 -69.5t11 -84.5q0 -117 -79 -195t-199 -78q-58 0 -105 18q-16 7 -35 18q-8 5 -31 20l-49 -58l-30 27l51 54q-1 1 -11 13q-14 16 -22 28q-46 64 -46 153q0 117 79 196t198 79q54 0 107 -19q23 -8 71 -36zM438 373 l-226 -250q40 -34 97 -34q69 0 118 49t49 120q0 59 -38 115zM184 149l227 250q-46 32 -101 32q-70 0 -118 -48q-22 -24 -34 -54.5t-12 -67.5q0 -59 38 -112z" />
<glyph unicode="&#xf9;" horiz-adv-x="552" d="M385 70l-21 -27q-48 -56 -135 -56q-69 0 -116 39q-43 39 -52 107l-4 89v292l113 15v-323q0 -39 3 -56q12 -61 89 -61q39 0 70 22.5t44 61.5q3 11 5 27.5t2 42.5v271l112 15v-521l-110 -14v76zM149 721h128l78 -151h-92z" />
<glyph unicode="&#xfa;" horiz-adv-x="552" d="M385 70l-21 -27q-48 -56 -135 -56q-69 0 -116 39q-43 39 -52 107l-4 89v292l113 15v-323q0 -39 3 -56q12 -61 89 -61q39 0 70 22.5t44 61.5q3 11 5 27.5t2 42.5v271l112 15v-521l-110 -14v76zM241 570l76 151h126l-112 -151h-90z" />
<glyph unicode="&#xfb;" horiz-adv-x="552" d="M385 70l-21 -27q-48 -56 -135 -56q-69 0 -116 39q-43 39 -52 107l-4 89v292l113 15v-323q0 -39 3 -56q12 -61 89 -61q39 0 70 22.5t44 61.5q3 11 5 27.5t2 42.5v271l112 15v-521l-110 -14v76zM117 570l100 142h137l100 -143h-96l-72 105l-72 -104h-97z" />
<glyph unicode="&#xfc;" horiz-adv-x="552" d="M385 70l-21 -27q-48 -56 -135 -56q-69 0 -116 39q-43 39 -52 107l-4 89v292l113 15v-323q0 -39 3 -56q12 -61 89 -61q39 0 70 22.5t44 61.5q3 11 5 27.5t2 42.5v271l112 15v-521l-110 -14v76zM121 643l68 75l68 -75l-68 -74zM317 643l68 75l68 -75l-68 -74z" />
<glyph unicode="&#xff;" horiz-adv-x="480" d="M-23 507l112 28l160 -360l146 360l107 -28l-306 -710l-113 22l111 249zM84 643l68 75l68 -75l-68 -74zM280 643l68 75l68 -75l-68 -74z" />
<glyph unicode="&#x131;" horiz-adv-x="228" d="M57 -8v522l114 15v-521z" />
<glyph unicode="&#x134;" horiz-adv-x="341" d="M1 832l70 76l69 -76l-69 -76zM201 832l69 76l70 -76l-70 -76z" />
<glyph unicode="&#x152;" horiz-adv-x="1116" d="M680 627l6 94h377l25 -108h-304v-197h242v-99h-242v-207h320l-25 -110h-400l-7 108l-5 -4q-85 -67 -139 -91q-25 -11 -56.5 -17t-67.5 -6q-152 0 -260.5 108.5t-108.5 263.5q0 156 108 265t268 109q78 0 131 -21t138 -88zM417 622q-108 0 -182 -75.5t-74 -184.5 q0 -107 74 -181t179 -74t179.5 75.5t74.5 182.5q0 106 -72.5 181.5t-178.5 75.5z" />
<glyph unicode="&#x153;" horiz-adv-x="1002" d="M535 417q87 116 214 116q107 0 181 -68q27 -24 55 -70l-360 -225q29 -42 63 -61t84 -19q52 0 110 31l52 33l28 -98q-105 -69 -196 -69q-104 0 -187 66q-22 19 -45 58q-20 -30 -40 -50q-74 -69 -178 -69q-121 0 -201 76.5t-80 192.5q0 114 81.5 194.5t197.5 80.5 q109 0 182 -70q20 -19 39 -49zM310 431q-69 0 -116 -48.5t-47 -120.5q0 -69 46.5 -118.5t114.5 -49.5q67 0 115.5 48.5t48.5 118.5q0 37 -11 66t-36 55q-46 49 -115 49zM591 237l255 159q-43 41 -99 41q-70 0 -114 -46t-44 -120q0 -23 2 -34z" />
<glyph unicode="&#x178;" horiz-adv-x="549" d="M128 877l68 75l68 -75l-68 -74zM324 877l68 75l68 -75l-68 -74zM-16 710l126 22l176 -361l163 361l121 -22l-346 -721l-128 27l123 245z" />
<glyph unicode="&#x192;" horiz-adv-x="398" d="M-81 -195l10 98l36 -2q57 0 79 25q26 30 32 73l2 22l43 416h-67l26 84h49l1 12l4 30q11 71 61 124t121 60l82 4l-10 -96q-84 0 -111 -27q-24 -26 -33 -91l-2 -16h128l-19 -84h-117l-44 -414q-23 -219 -234 -219z" />
<glyph unicode="&#x2c6;" horiz-adv-x="339" d="M1 570l100 142h137l100 -143h-96l-72 105l-72 -104h-97z" />
<glyph unicode="&#x2c7;" horiz-adv-x="339" d="M1 712h97l72 -106l72 106h96l-100 -143h-137z" />
<glyph unicode="&#x2d8;" horiz-adv-x="322" d="M1 707h81q12 -67 78 -67q65 0 78 67h83q-36 -139 -162 -139q-122 0 -158 139z" />
<glyph unicode="&#x2d9;" horiz-adv-x="152" d="M1 678l75 81l75 -81l-75 -82z" />
<glyph unicode="&#x2da;" horiz-adv-x="191" d="M1 656q0 38 27.5 66.5t66.5 28.5t67 -28t28 -67t-27.5 -66.5t-67.5 -27.5q-38 0 -66 27t-28 67zM95 697q-14 0 -27 -12t-13 -29q0 -14 12 -27t28 -13q15 0 28 12t13 28q0 15 -12 28t-29 13z" />
<glyph unicode="&#x2db;" horiz-adv-x="201" d="M19 79l82 96l81 -96l-81 -95z" />
<glyph unicode="&#x2dc;" horiz-adv-x="347" d="M1 614q52 64 111 64q36 0 53 -11l8 -3l31 -14l24 -5q33 0 68 33l50 -47q-57 -62 -116 -62q-14 0 -20.5 1.5t-18.5 6.5l-6 4l-35 16l-6 2q-12 6 -26 6q-28 0 -63 -35z" />
<glyph unicode="&#x2013;" d="M61 342v101h485v-101h-485z" />
<glyph unicode="&#x2014;" horiz-adv-x="996" d="M30 311v95h936v-95h-936z" />
<glyph unicode="&#x2018;" horiz-adv-x="249" d="M19 414l116 307h94l-91 -295z" />
<glyph unicode="&#x2019;" horiz-adv-x="249" d="M19 424l91 296l119 9l-115 -305h-95z" />
<glyph unicode="&#x201a;" horiz-adv-x="219" d="M-10 -120l91 295l119 12l-116 -307h-94z" />
<glyph unicode="&#x201c;" horiz-adv-x="432" d="M202 414l116 307h95l-92 -295zM19 414l116 307h94l-91 -295z" />
<glyph unicode="&#x201d;" horiz-adv-x="432" d="M19 424l91 296l119 9l-115 -305h-95zM202 424l92 296l119 9l-116 -305h-95z" />
<glyph unicode="&#x201e;" horiz-adv-x="414" d="M1 -120l92 295l119 12l-116 -307h-95zM185 -120l91 295l119 12l-116 -307h-94z" />
<glyph unicode="&#x2020;" horiz-adv-x="595" d="M19 389l15 105h209v220l108 14v-234h224l-15 -105h-209v-562l-109 -14v576h-223z" />
<glyph unicode="&#x2021;" horiz-adv-x="768" d="M734 581l-29 -61q-83 102 -230 102q-91 0 -161 -53t-95 -137h445l-30 -63h-429l-2 -33l2 -30h400l-30 -63h-356q27 -89 98 -140.5t168 -51.5q137 0 220 99v-85q-97 -77 -225 -77q-122 0 -213.5 68.5t-118.5 186.5h-113l30 63h71l-1 31l1 32h-101l30 63h83 q27 117 119.5 185t217.5 68q72 0 140.5 -27.5t108.5 -76.5z" />
<glyph unicode="&#x2022;" horiz-adv-x="201" d="M19 288l82 95l81 -95l-81 -97z" />
<glyph unicode="&#x2026;" horiz-adv-x="996" d="M95 61q0 30 21 51t51 21t51 -21t21 -51t-21 -51t-51 -21t-51 21t-21 51zM428 61q0 30 21 51t51 21t51 -21t21 -51t-21 -51t-51 -21t-51 21t-21 51zM761 61q0 30 21 51t51 21t51 -21t21 -51t-21 -51t-51 -21q-28 0 -50 21t-22 51z" />
<glyph unicode="&#x2030;" horiz-adv-x="1269" d="M35 507q0 102 45 165t122 63q78 0 124.5 -62t46.5 -166t-46 -166.5t-124 -62.5q-75 0 -121.5 63t-46.5 166zM226 -4l360 743l59 -21l-357 -739zM504 214q0 103 45 166t122 63q78 0 124.5 -62t46.5 -167q0 -104 -45.5 -166t-124.5 -62q-75 0 -121.5 62.5t-46.5 165.5z M896 214q0 104 45.5 166.5t122.5 62.5q78 0 124.5 -62t46.5 -167q0 -104 -45.5 -166t-124.5 -62q-77 0 -123 62.5t-46 165.5zM674 372q-42 0 -67 -44t-25 -114t24.5 -114t65.5 -44q39 0 65 44t26 114t-24.5 114t-64.5 44zM204 665q-41 0 -66.5 -44.5t-25.5 -113.5t25.5 -114 t65.5 -45q41 0 66.5 45t25.5 114q0 36 -6 63.5t-20 50.5q-24 44 -65 44zM1066 372q-41 0 -66.5 -44.5t-25.5 -113.5q0 -70 25.5 -114t65.5 -44q41 0 66.5 44t25.5 114q0 36 -6 63.5t-20 50.5q-24 44 -65 44z" />
<glyph unicode="&#x2039;" horiz-adv-x="267" d="M19 277l157 216l72 -49l-124 -168l119 -175l-71 -49z" />
<glyph unicode="&#x203a;" horiz-adv-x="267" d="M19 101l124 168l-119 176l70 48l154 -224l-158 -217z" />
<glyph unicode="&#x20ac;" horiz-adv-x="774" d="M35 257l34 79h58v23v26h-92l34 79h71q33 120 132.5 194.5t231.5 74.5q135 0 236 -77l-50 -119q-75 84 -186 84q-79 0 -140 -42t-93 -115h387l-34 -79h-372l-1 -26v-23h352l-33 -79h-300q28 -72 92 -116t142 -44q111 0 187 85l-1 -152q-84 -45 -185 -45 q-134 0 -233.5 74.5t-132.5 197.5h-104z" />
<glyph unicode="&#x2122;" horiz-adv-x="782" d="M43 666v54h218v-54h-80v-306h-60v306h-78zM249 360l67 367h39l92 -217q14 -33 17 -68q0 33 17 68l93 217h39l67 -367h-60l-37 227v38l-10 -37l-4 -15l-2 -5l-90 -214h-25l-97 234l-10 37l1 -38l-1 -10l-2 -11l-35 -206h-59z" />
<glyph unicode="&#x25fc;" horiz-adv-x="535" d="M0 535h535v-535h-535v535z" />
</font>
</defs>
</svg>
