<svg width="138" height="52" viewBox="0 0 138 52" fill="none" xmlns="http://www.w3.org/2000/svg">
<path d="M11.76 27.44H12.24V32H0.960007V31.52H2.16001V19.04H0.960007V18.56H7.20001V19.04H5.76001V31.52H8.16001C8.70401 31.52 9.15201 31.48 9.50401 31.4C9.87201 31.32 10.248 31.152 10.632 30.896C11.384 30.4 11.76 29.248 11.76 27.44ZM27.6608 31.52V32H21.3488V31.52H22.7648L21.1568 28.184H16.3088L14.9168 31.52H16.8128V32H12.7088V31.52H14.3168L19.8128 18.32H20.4128L26.5088 31.52H27.6608ZM16.5248 27.68H20.9168L18.5648 22.784L16.5248 27.68ZM40.9706 26.144C40.9706 30.288 39.2266 32.36 35.7386 32.36C33.8026 32.36 32.2906 31.864 31.2026 30.872C30.1146 29.88 29.5706 28.384 29.5706 26.384V19.04H28.3706V18.56H34.6106V19.04H33.4106V26.648C33.4106 29.992 34.5306 31.664 36.7706 31.664C37.6826 31.664 38.5066 31.216 39.2426 30.32C39.9946 29.408 40.3706 28.176 40.3706 26.624V19.04H38.4746V18.56H42.1706V19.04H40.9706V26.144ZM44.8219 31.52H46.7419V32H42.9019V31.52H44.3419V20.096C43.8299 19.392 43.3499 19.04 42.9019 19.04V18.56H47.3899L54.1339 26.552V19.04H52.2139V18.56H56.2939V19.04H54.6139V32.24H54.1339L44.8219 20.696V31.52ZM99.8194 32H93.8194V31.52H95.0194V19.04H93.8194V18.56H99.8194C101.003 18.56 102.067 18.76 103.011 19.16C103.971 19.544 104.747 20.056 105.339 20.696C106.539 22.024 107.139 23.528 107.139 25.208C107.139 27.48 106.539 29.184 105.339 30.32C104.139 31.44 102.299 32 99.8194 32ZM98.6194 31.52C100.347 31.52 101.595 31.056 102.363 30.128C103.131 29.184 103.515 27.656 103.515 25.544C103.515 23.416 103.099 21.8 102.267 20.696C101.435 19.592 100.219 19.04 98.6194 19.04V31.52ZM113.145 19.04V25.232C114.745 25.232 115.817 25 116.361 24.536C116.905 24.072 117.177 23.296 117.177 22.208C117.177 21.12 116.897 20.32 116.337 19.808C115.777 19.296 114.713 19.04 113.145 19.04ZM122.577 32.24H121.521C119.521 32.24 118.129 31.808 117.345 30.944C116.721 30.272 116.297 29.384 116.073 28.28C115.977 27.816 115.873 27.392 115.761 27.008C115.505 26.144 114.985 25.712 114.201 25.712H113.145V31.52H114.345V32H108.345V31.52H109.545V19.04H108.345V18.56H114.657C118.737 18.56 120.777 19.752 120.777 22.136C120.777 23.08 120.433 23.848 119.745 24.44C119.057 25.032 118.177 25.328 117.105 25.328V25.496C118.705 25.496 119.817 26.552 120.441 28.664C120.761 29.784 121.081 30.584 121.401 31.064C121.737 31.528 122.129 31.76 122.577 31.76V32.24ZM133.157 32H127.637V31.52H128.597V26.456L124.301 19.04H123.053V18.56H129.773V19.04H128.597L131.957 25.088L135.077 19.04H133.157V18.56H137.357V19.04H135.677L132.197 25.808V31.52H133.157V32Z" fill="white"/>
<path d="M89.636 28.224V28.692C89.636 30.228 89.228 31.716 88.412 33.156C88.076 33.78 87.668 34.32 87.188 34.776C86.708 35.208 86.06 35.58 85.244 35.892C84.428 36.204 83.516 36.36 82.508 36.36C79.868 36.36 77.408 35.52 75.128 33.84C74.384 34.8 73.46 35.46 72.356 35.82C71.276 36.156 69.98 36.324 68.468 36.324C66.956 36.324 65.636 36.084 64.508 35.604C63.404 35.124 62.528 34.512 61.88 33.768C61.256 33 60.8 32.148 60.512 31.212C60.248 30.252 60.176 29.316 60.296 28.404C60.44 27.492 60.788 26.628 61.34 25.812C61.892 24.972 62.672 24.264 63.68 23.688C64.688 23.112 65.912 22.788 67.352 22.716C67.232 22.068 67.172 21.48 67.172 20.952C67.172 18.984 67.88 17.364 69.296 16.092C70.712 14.82 72.56 14.184 74.84 14.184C77.144 14.184 78.848 14.7 79.952 15.732C81.08 16.764 81.644 17.964 81.644 19.332C81.644 20.7 81.104 21.852 80.024 22.788C78.968 23.7 77.552 24.156 75.776 24.156L75.596 23.58C76.196 23.364 76.676 22.8 77.036 21.888C77.396 20.976 77.576 19.944 77.576 18.792C77.576 16.2 76.64 14.904 74.768 14.904C73.952 14.904 73.292 15.228 72.788 15.876C72.284 16.5 72.032 17.364 72.032 18.468C72.032 19.548 72.368 20.928 73.04 22.608C73.856 24.672 75.188 26.628 77.036 28.476C77.948 26.388 79.16 24.984 80.672 24.264C82.208 23.52 83.804 23.424 85.46 23.976C86.3 24.264 86.948 24.792 87.404 25.56C87.86 26.328 87.92 27.12 87.584 27.936C87.248 28.752 86.744 29.304 86.072 29.592C85.4 29.856 84.74 29.856 84.092 29.592C83.444 29.328 82.988 28.98 82.724 28.548C82.484 28.092 82.364 27.672 82.364 27.288C82.364 26.232 82.148 25.608 81.716 25.416C81.068 25.152 80.384 25.356 79.664 26.028C78.968 26.7 78.32 27.744 77.72 29.16C79.88 31.2 82.004 32.22 84.092 32.22C84.932 32.22 85.664 32.088 86.288 31.824C86.936 31.536 87.416 31.2 87.728 30.816C88.4 29.976 88.772 29.256 88.844 28.656L88.916 28.224H89.636ZM66.056 30.204C66.512 31.212 67.244 32.136 68.252 32.976C69.284 33.816 70.352 34.32 71.456 34.488C72.584 34.632 73.568 34.224 74.408 33.264C73.424 32.472 72.464 31.536 71.528 30.456C69.44 28.128 68.096 25.776 67.496 23.4C66.56 23.976 65.936 24.888 65.624 26.136C65.312 27.36 65.456 28.716 66.056 30.204Z" fill="#253AFF"/>
</svg>
