<svg width="10" height="8" viewBox="0 0 10 8" fill="none" xmlns="http://www.w3.org/2000/svg">
<path d="M9.81936 1.22587L8.94196 0.348466C8.82165 0.228068 8.67533 0.167847 8.50334 0.167847C8.3312 0.167847 8.18488 0.228068 8.06457 0.348466L3.83226 4.58718L1.93547 2.68393C1.81503 2.56349 1.6688 2.50333 1.49681 2.50333C1.32471 2.50333 1.17849 2.56349 1.05805 2.68393L0.180642 3.56136C0.0601989 3.68178 0 3.82805 0 4.00013C0 4.17207 0.0601989 4.31847 0.180642 4.43887L2.51608 6.77427L3.39355 7.65167C3.51393 7.77216 3.6602 7.83231 3.83226 7.83231C4.00424 7.83231 4.15052 7.772 4.27096 7.65167L5.14841 6.77427L9.81936 2.10334C9.93969 1.9829 10 1.83665 10 1.66457C10.0001 1.49258 9.93969 1.34631 9.81936 1.22587Z" fill="#253AFF"/>
</svg>
