<svg width="50" height="50" viewBox="0 0 50 50" fill="none" xmlns="http://www.w3.org/2000/svg">
<path d="M49.5462 23.9497L41.3731 16.2574C40.9543 15.863 40.3409 15.7554 39.8126 15.9837C39.2844 16.2119 38.9424 16.7322 38.9424 17.3077V20.6731H29.327V11.0577H32.6924C33.2678 11.0577 33.7882 10.7157 34.0164 10.1875C34.2446 9.65928 34.1371 9.0459 33.7427 8.62695L26.0503 0.453809C25.7777 0.164258 25.3977 0 25 0C24.6023 0 24.2223 0.164258 23.9497 0.453809L16.2574 8.62695C15.863 9.0459 15.7555 9.65928 15.9837 10.1875C16.2119 10.7157 16.7322 11.0577 17.3077 11.0577H20.6731V20.6731H11.0577V17.3077C11.0577 16.7323 10.7157 16.2119 10.1875 15.9837C9.65918 15.7555 9.0459 15.863 8.62695 16.2574L0.453809 23.9497C0.164258 24.2223 0 24.6023 0 25C0 25.3977 0.164258 25.7777 0.453809 26.0503L8.62685 33.7426C9.0458 34.137 9.65908 34.2446 10.1874 34.0163C10.7156 33.7881 11.0576 33.2678 11.0576 32.6923V29.3269H20.673V38.9423H17.3076C16.7322 38.9423 16.2118 39.2843 15.9836 39.8125C15.7554 40.3407 15.8629 40.9541 16.2573 41.373L23.9496 49.5461C24.2221 49.8357 24.6022 49.9999 24.9999 49.9999C25.3976 49.9999 25.7776 49.8356 26.0502 49.5461L33.7425 41.373C34.1369 40.9541 34.2444 40.3407 34.0162 39.8125C33.788 39.2843 33.2677 38.9423 32.6922 38.9423H29.3268V29.3269H38.9422V32.6923C38.9422 33.2677 39.2842 33.7881 39.8124 34.0163C40.3407 34.2445 40.9541 34.137 41.3729 33.7426L49.546 26.0503C49.8356 25.7778 49.9998 25.3977 49.9998 25C49.9998 24.6023 49.8357 24.2223 49.5462 23.9497Z" fill="white"/>
</svg>
