<svg width="20" height="20" viewBox="0 0 20 20" fill="none" xmlns="http://www.w3.org/2000/svg">
<path d="M19.2459 0.755331C18.7424 0.251701 18.1391 0 17.4361 0H2.56622C1.86306 0 1.25987 0.251792 0.75624 0.755331C0.252701 1.25873 0.000999451 1.86201 0.000999451 2.56503V17.4348C0.000999451 18.1378 0.252655 18.7412 0.75624 19.2446C1.25987 19.7481 1.8632 20 2.56622 20H17.436C18.1388 20 18.7423 19.7481 19.2458 19.2446C19.7494 18.7412 20.0009 18.1378 20.0009 17.4348V2.56503C20.0009 1.86188 19.7494 1.25892 19.2459 0.755331ZM7.18221 7.20693C7.96773 6.4475 8.91178 6.0676 10.0142 6.0676C11.1252 6.0676 12.0735 6.4475 12.8592 7.20693C13.6449 7.96651 14.0375 8.88456 14.0375 9.96091C14.0375 11.0371 13.6449 11.9552 12.8592 12.7146C12.0735 13.4743 11.1255 13.8542 10.0142 13.8542C8.91183 13.8542 7.96787 13.474 7.18221 12.7146C6.39651 11.9551 6.0037 11.0371 6.0037 9.96091C6.0037 8.88456 6.39651 7.96655 7.18221 7.20693ZM17.7356 16.9012C17.7356 17.1267 17.6573 17.3154 17.5012 17.4674C17.3446 17.6193 17.1583 17.6953 16.941 17.6953H3.02201C2.79635 17.6953 2.6074 17.6193 2.45562 17.4674C2.30362 17.3158 2.22768 17.1267 2.22768 16.9012V8.46339H4.06356C3.89003 9.01034 3.80324 9.57901 3.80324 10.1692C3.80324 11.8362 4.41081 13.2574 5.62608 14.4338C6.84149 15.6098 8.30413 16.1981 10.0142 16.1981C11.1427 16.1981 12.1843 15.9289 13.1394 15.3908C14.0943 14.8523 14.849 14.1211 15.405 13.1965C15.9606 12.272 16.2384 11.2628 16.2384 10.1692C16.2384 9.57905 16.1513 9.01053 15.9777 8.46343H17.7357V16.9012H17.7356V16.9012ZM17.7356 5.27327C17.7356 5.52502 17.6489 5.73773 17.475 5.9113C17.3014 6.08502 17.0889 6.17176 16.837 6.17176H14.5714C14.3198 6.17176 14.1069 6.08497 13.9334 5.9113C13.7598 5.73773 13.6731 5.52502 13.6731 5.27327V3.12503C13.6731 2.88195 13.7598 2.67148 13.9334 2.49348C14.107 2.31557 14.3199 2.2265 14.5714 2.2265H16.837C17.0889 2.2265 17.3015 2.31552 17.475 2.49348C17.6488 2.67148 17.7356 2.88195 17.7356 3.12503V5.27327Z" fill="white"/>
</svg>
