<svg width="25" height="25" viewBox="0 0 25 25" fill="none" xmlns="http://www.w3.org/2000/svg">
<g clip-path="url(#clip0)">
<path d="M18.6155 16.4369C17.0799 16.9179 15.4526 16.967 13.9276 16.3653C12.5314 15.8139 11.4699 14.6668 10.567 13.5104C9.4106 12.0303 8.41451 10.4276 7.28424 8.92713C5.94453 7.14931 4.52955 5.43202 3.11335 3.71515C2.02849 4.41466 -1.42816 7.03027 0.654419 10.8784C3.10435 15.406 1.50651 20.7321 1.87959 20.9988C2.25266 21.2647 2.99799 21.052 2.99799 21.052C2.35902 13.4351 2.99799 12.7957 2.99799 12.7957C8.11138 11.0384 8.644 21.052 14.5031 21.3183C20.3618 21.5842 24.9958 19.41 24.9958 19.41C25.1517 17.5594 19.9957 17.7361 18.6155 16.4369Z" fill="white"/>
<path d="M13.6389 15.7603C15.112 16.5015 16.7257 16.5277 18.2692 16.0945C16.963 15.1426 14.0713 17.0378 10.6146 11.6773C7.42223 6.72593 4.35297 4.22977 3.6015 3.65912C5.90867 6.50176 8.11888 9.38367 10.251 12.3678C11.1644 13.6462 12.1977 15.0358 13.6389 15.7603Z" fill="white"/>
</g>
<defs>
<clipPath id="clip0">
<rect width="25" height="25" fill="white"/>
</clipPath>
</defs>
</svg>
