<svg width="25" height="25" viewBox="0 0 25 25" fill="none" xmlns="http://www.w3.org/2000/svg">
<g clip-path="url(#clip0)">
<path d="M-0.0488281 19.0002H22.3963V16.1645H1.59302L-0.0488281 19.0002Z" fill="white"/>
<path d="M24.9512 14.696V9.53267C24.9512 7.63497 23.4102 6.091 21.5162 6.091H12.3571C9.31512 6.091 6.47717 7.7288 4.95072 10.3651L2.44313 14.696H24.9512ZM13.7766 9.82927C13.7766 9.19422 14.2904 8.67937 14.9242 8.67937H21.2828C21.9168 8.67937 22.4306 9.19422 22.4306 9.82927V10.635C22.4306 11.27 21.9168 11.7849 21.2828 11.7849H14.9242C14.2904 11.7849 13.7766 11.27 13.7766 10.635V9.82927Z" fill="white"/>
</g>
<defs>
<clipPath id="clip0">
<rect width="25" height="25" fill="white"/>
</clipPath>
</defs>
</svg>
