<svg width="50" height="50" viewBox="0 0 50 50" fill="none" xmlns="http://www.w3.org/2000/svg">
<g clip-path="url(#clip0)">
<path d="M11.8164 5.85938L17.6758 17.5781L25 11.7188L14.7461 0L11.8164 5.85938Z" fill="white"/>
<path d="M38.1836 5.85938L35.2539 0L25 11.7188L32.3242 17.5781L38.1836 5.85938Z" fill="white"/>
<path d="M31.3617 0H18.6384L25.0001 7.26973L31.3617 0Z" fill="white"/>
<path d="M28.2445 18.0662L25 15.4707L21.7556 18.0662L22.9758 20.5079H27.0242L28.2445 18.0662Z" fill="white"/>
<path d="M18.0954 50L20.5844 22.2763L19.4156 19.9381L16.6759 22.13L9.04746 6.87329L0 9.13247L3.13603 50H18.0954Z" fill="white"/>
<path d="M33.3241 22.13L30.5843 19.9381L29.4156 22.2763L31.9045 50H46.8639L49.9999 9.13247L40.9525 6.87329L33.3241 22.13ZM42.5781 29.2969H33.789V26.3672H42.5781V29.2969Z" fill="white"/>
<path d="M28.9643 50L26.6036 23.4375H23.3964L21.0357 50H28.9643Z" fill="white"/>
</g>
<defs>
<clipPath id="clip0">
<rect width="50" height="50" fill="white"/>
</clipPath>
</defs>
</svg>
