<svg width="56" height="56" viewBox="0 0 56 56" fill="none" xmlns="http://www.w3.org/2000/svg">
<g clip-path="url(#clip0)">
<path d="M55.4213 21.943C55.305 21.5866 54.9966 21.3267 54.6252 21.2726L36.8031 18.6844L28.8329 2.54678C28.6674 2.21008 28.3245 1.99744 27.9501 1.99744C27.5758 1.99744 27.2319 2.21008 27.0674 2.54678L19.0962 18.6854L1.27406 21.2736C0.90264 21.3277 0.595259 21.5866 0.478021 21.944C0.362754 22.2994 0.458317 22.6912 0.727275 22.9521L13.6244 35.5141L10.5792 53.2525C10.5162 53.6216 10.6679 53.9948 10.9703 54.2153C11.2748 54.4378 11.6777 54.4663 12.0077 54.2901L27.9501 45.9161L43.8906 54.2901C44.0344 54.3659 44.193 54.4033 44.3497 54.4033C44.5536 54.4033 44.7565 54.3403 44.929 54.2153C45.2324 53.9948 45.3841 53.6216 45.3201 53.2525L42.2758 35.5151L55.173 22.9521C55.441 22.6893 55.5375 22.2984 55.4213 21.943Z" fill="white"/>
</g>
<defs>
<clipPath id="clip0">
<rect width="55.0398" height="55" fill="white" transform="translate(0.429718 0.699951)"/>
</clipPath>
</defs>
</svg>
