<svg width="25" height="25" viewBox="0 0 25 25" fill="none" xmlns="http://www.w3.org/2000/svg">
<g clip-path="url(#clip0)">
<path d="M19.8721 3.33331H18.3668V3.74998C18.3668 3.98008 18.1802 4.16665 17.9501 4.16665C17.72 4.16665 17.5334 3.98008 17.5334 3.74998V3.33331H15.4206C15.2145 4.76927 13.9842 5.83555 12.5334 5.83555C11.0826 5.83555 9.85237 4.76927 9.64627 3.33331H7.53344V3.74998C7.53344 3.98008 7.34687 4.16665 7.11677 4.16665C6.88667 4.16665 6.7001 3.98008 6.7001 3.74998V3.33331H5.18216L1.00003 6.75494L3.45263 10.6087L4.75308 9.42666C4.87495 9.31557 5.05114 9.28709 5.20189 9.35382C5.35285 9.42055 5.4501 9.57009 5.4501 9.73488V24.1666H19.6168V9.88666C19.6168 9.72573 19.7095 9.57904 19.855 9.51027C20.0005 9.4413 20.1726 9.46226 20.2971 9.56419L21.6167 10.6429L24.0654 7.14496L19.8721 3.33331Z" fill="white"/>
<path d="M12.5 5.00002C13.6501 4.9986 14.5819 4.06679 14.5833 2.91669H10.4167C10.4181 4.06679 11.3499 4.9986 12.5 5.00002Z" fill="white"/>
<path d="M0.416667 1.66665H6.66667V0.833313H0.416667C0.186564 0.833313 0 1.01988 0 1.24998C0 1.48008 0.186564 1.66665 0.416667 1.66665Z" fill="white"/>
<path d="M18.3333 1.66665H24.5833C24.8134 1.66665 25 1.48008 25 1.24998C25 1.01988 24.8134 0.833313 24.5833 0.833313H18.3333V1.66665Z" fill="white"/>
<path d="M7.5 0.833313H17.5V1.66665H7.5V0.833313Z" fill="white"/>
</g>
<defs>
<clipPath id="clip0">
<rect width="25" height="25" fill="white"/>
</clipPath>
</defs>
</svg>
