<svg width="25" height="25" viewBox="0 0 25 25" fill="none" xmlns="http://www.w3.org/2000/svg">
<g clip-path="url(#clip0)">
<path d="M12.5001 10.2077C10.293 10.2077 8.41954 11.6625 7.7877 13.6636C10.3163 12.4501 11.9091 13.7227 12.7392 14.3863C12.8144 14.4465 12.8855 14.5034 12.9532 14.5551C13.0314 14.6149 13.11 14.6777 13.1932 14.7442C14.0876 15.4593 15.1916 16.3416 17.4269 14.7795C17.2376 12.2268 15.1003 10.2077 12.5001 10.2077Z" fill="white"/>
<path d="M15.1845 17.1377C13.7967 17.1378 12.8422 16.3745 12.2611 15.9099C12.1859 15.8498 12.1147 15.7928 12.0471 15.7412C11.9688 15.6814 11.8903 15.6186 11.8071 15.5521C10.9126 14.837 9.80854 13.9549 7.57333 15.5168C7.76254 18.0695 9.8999 20.0886 12.5001 20.0886C14.7071 20.0886 16.5805 18.634 17.2125 16.6332C16.4539 16.9973 15.7793 17.1377 15.1845 17.1377Z" fill="white"/>
<path d="M22.2781 6.789H2.72198H1.97569V22.8815C1.97569 24.0496 2.92603 25 4.09415 25H20.906C22.0741 25 23.0245 24.0496 23.0245 22.8815V6.789H22.2781ZM12.5003 21.5813C8.95304 21.5813 6.0671 18.6954 6.0671 15.1482C6.0671 11.601 8.95299 8.71503 12.5003 8.71503C16.0475 8.71503 18.9334 11.6009 18.9334 15.1482C18.9334 18.6954 16.0475 21.5813 12.5003 21.5813Z" fill="white"/>
<path d="M20.906 0H4.09415C2.92603 0 1.97569 0.950342 1.97569 2.11846V5.29644H2.72198H22.2781H23.0244V2.11846C23.0245 0.950342 22.0741 0 20.906 0ZM8.90728 3.44424H5.26866C4.8565 3.44424 4.52237 3.11011 4.52237 2.69795C4.52237 2.28579 4.85645 1.95166 5.26866 1.95166H8.90728C9.31944 1.95166 9.65357 2.28579 9.65357 2.69795C9.65357 3.11011 9.31944 3.44424 8.90728 3.44424ZM16.4201 3.44424H15.3189C14.9067 3.44424 14.5726 3.11011 14.5726 2.69795C14.5726 2.28579 14.9067 1.95166 15.3189 1.95166H16.4201C16.8322 1.95166 17.1664 2.28579 17.1664 2.69795C17.1664 3.11011 16.8322 3.44424 16.4201 3.44424ZM19.7315 3.44424H18.6303C18.2181 3.44424 17.884 3.11011 17.884 2.69795C17.884 2.28579 18.2181 1.95166 18.6303 1.95166H19.7315C20.1436 1.95166 20.4777 2.28579 20.4777 2.69795C20.4777 3.11011 20.1436 3.44424 19.7315 3.44424Z" fill="white"/>
</g>
<defs>
<clipPath id="clip0">
<rect width="25" height="25" fill="white"/>
</clipPath>
</defs>
</svg>
