<svg width="26" height="26" viewBox="0 0 26 26" fill="none" xmlns="http://www.w3.org/2000/svg">
<g clip-path="url(#clip0)">
<path d="M12.633 25.213C12.592 25.213 12.549 25.195 12.52 25.162L7.87003 20.533C7.82503 20.486 7.80903 20.416 7.83503 20.355C7.85803 20.293 7.92303 20.251 7.98703 20.251H10.936V11.454L4.24203 4.766L2.19703 6.809C2.15003 6.857 2.07803 6.873 2.01603 6.848C1.95703 6.82 1.91803 6.758 1.91803 6.695L1.92403 0.177C1.92403 0.087 1.99803 0.013 2.08603 0.013L8.60903 0C8.67503 0 8.73403 0.041 8.75903 0.1C8.78403 0.166 8.77103 0.235 8.72603 0.284L6.65203 2.354L12.588 8.292L18.529 2.351L16.484 0.302C16.437 0.253 16.423 0.187 16.449 0.124C16.476 0.062 16.535 0.024 16.601 0.024L23.115 0.03C23.205 0.03 23.277 0.1 23.277 0.192L23.295 6.712C23.295 6.778 23.252 6.841 23.191 6.864C23.13 6.889 23.058 6.876 23.011 6.829L20.939 4.757L14.363 11.337V20.253H17.273C17.337 20.253 17.396 20.294 17.423 20.357C17.45 20.418 17.435 20.488 17.386 20.535L12.751 25.164C12.717 25.195 12.678 25.213 12.633 25.213Z" fill="white"/>
</g>
<defs>
<clipPath id="clip0">
<rect width="25.213" height="25.213" fill="white"/>
</clipPath>
</defs>
</svg>
